<svg width="255" height="252" viewBox="0 0 255 252" fill="none" xmlns="http://www.w3.org/2000/svg">
<path d="M206.387 27.9046C165.844 -1.26928 126.385 0.820026 126.385 0.820026C126.385 0.820026 86.1015 0.214563 47.9906 29.4675C3.98272 63.5762 -2.92064 125.444 3.25974 131.132C6.27559 135.568 16.2625 136.26 26.3231 136.26H52.8353C54.8037 137.679 45.2244 173.946 45.2244 173.946L40.9961 199.674C40.9961 199.674 40.4764 215.272 45.2244 223.952C48.9682 230.796 59.1776 239.171 59.1776 239.171C59.1776 239.171 75.1366 251.908 132.326 250.767C187.647 249.664 200.084 239.171 200.084 239.171C200.084 239.171 208.235 231.054 211.817 223.952C215.893 215.872 213.932 201.485 213.932 201.485L211.817 173.946C211.817 173.946 202.938 140.204 202.938 136.26H230.467C242.061 136.26 249.641 136.81 251.938 133.006C256.286 123.288 255.689 65.7459 206.387 27.9046Z" fill="#E2E8F0" stroke="black"/>
<line x1="84.8352" y1="123.896" x2="171.372" y2="123.896" stroke="#393939" stroke-width="20" stroke-linecap="round"/>
<line x1="126.984" y1="80.2537" x2="126.984" y2="166.791" stroke="#393939" stroke-width="20" stroke-linecap="round"/>
</svg>
