<svg width="255" height="252" viewBox="0 0 255 252" fill="none" xmlns="http://www.w3.org/2000/svg">
<path d="M206.387 28.4073C165.844 -0.76659 126.385 1.32271 126.385 1.32271C126.385 1.32271 86.1015 0.717249 47.9906 29.9702C3.98272 64.0788 -2.92064 125.947 3.25974 131.635C6.27559 136.071 16.2625 136.762 26.3231 136.762H52.8353C54.8037 138.182 45.2244 174.448 45.2244 174.448L40.9961 200.176C40.9961 200.176 40.4764 215.775 45.2244 224.455C48.9682 231.299 59.1776 239.674 59.1776 239.674C59.1776 239.674 75.1366 252.411 132.326 251.27C187.647 250.166 200.084 239.674 200.084 239.674C200.084 239.674 208.235 231.556 211.817 224.455C215.893 216.375 213.932 201.988 213.932 201.988L211.817 174.448C211.817 174.448 202.938 140.706 202.938 136.762H230.467C242.061 136.762 249.641 137.313 251.938 133.508C256.286 123.791 255.689 66.2486 206.387 28.4073Z" fill="#E2E8F0" stroke="black"/>
<line x1="84.8352" y1="124.399" x2="171.372" y2="124.399" stroke="#393939" stroke-width="20" stroke-linecap="round"/>
</svg>
