<svg width="249" height="96" viewBox="0 0 249 96" fill="none" xmlns="http://www.w3.org/2000/svg">
<path d="M27.8065 73.625H5.23389C4.6816 73.625 4.23389 74.0727 4.23389 74.625V92.625C4.23389 93.1773 4.6816 93.625 5.23389 93.625H27.8065C28.3588 93.625 28.8065 93.1773 28.8065 92.625V74.625C28.8065 74.0727 28.3588 73.625 27.8065 73.625Z" fill="url(#paint0_linear)" stroke="#ABABAB"/>
<path d="M31.0403 18.25H2C2 18.25 2 5.25 16.5202 5.25C31.0403 5.25 31.0403 18.25 31.0403 18.25Z" fill="#C4C4C4" stroke="#ABABAB" stroke-width="2"/>
<path d="M5.35913 47.7478C5.0612 44.1527 6.78145 38.605 6.78145 38.605H25.8572C25.8572 38.605 27.9308 44.1258 27.6979 47.7478C27.521 50.4974 27.6979 52.1619 25.8572 54.605C23.597 57.605 10.3853 57.605 7.19978 54.605C5.47954 52.3217 5.58674 50.4944 5.35913 47.7478Z" fill="#C4C4C4" stroke="#ABABAB" stroke-width="2"/>
<path d="M94.6796 15.5C96.7839 15.5 96.7414 8.00005 94.6796 8.00005L54.7554 8L53.2559 15.5H94.6796Z" fill="#E2E8F0"/>
<path d="M241.211 15C243.315 15 243.273 7.50005 241.211 7.50005L201.287 7.5L199.787 15H241.211Z" fill="#E2E8F0"/>
<path d="M241.211 51.4375C243.315 51.4375 243.273 43.9375 241.211 43.9375L201.287 43.9375L199.787 51.4375H241.211Z" fill="#E2E8F0"/>
<path d="M94.6796 51.75C96.7839 51.75 96.7414 44.25 94.6796 44.25L54.7554 44.25L53.2559 51.75H94.6796Z" fill="#E2E8F0"/>
<path d="M94.6796 87.4986C96.7839 87.4986 96.7414 79.9986 94.6796 79.9986L54.7554 79.9985L53.2559 87.4986H94.6796Z" fill="#E2E8F0"/>
<g clip-path="url(#clip0)">
<path d="M173.927 12.1544L172.195 5.41124C171.97 4.53175 171.371 3.77658 170.553 3.34017C169.734 2.90488 168.759 2.81656 167.872 3.10527L167.29 3.29378C166.969 3.39732 166.796 3.7339 166.903 4.04488L167.096 4.6082C167.203 4.91917 167.549 5.08728 167.869 4.98374L168.372 4.82083C168.788 4.6865 169.251 4.68835 169.639 4.88503C170.032 5.08431 170.31 5.42535 170.417 5.8432L171.886 11.5514C171.038 11.2986 169.984 11.089 168.785 11.089C167.457 11.089 165.959 11.3495 164.398 12.0813H161.603C160.042 11.3487 158.544 11.0886 157.216 11.0886C156.016 11.0886 154.962 11.2983 154.114 11.551L155.583 5.84245C155.69 5.42497 155.968 5.08357 156.361 4.88466C156.749 4.68798 157.212 4.68613 157.628 4.82046L158.131 4.98337C158.451 5.08691 158.797 4.9188 158.903 4.60783L159.097 4.04451C159.203 3.73353 159.03 3.39695 158.71 3.29341L158.128 3.1049C157.241 2.81618 156.266 2.90413 155.447 3.3398C154.629 3.77658 154.03 4.53138 153.804 5.4105L152.073 12.1544C152.024 12.3424 152 12.5354 152 12.7292V15.3361C152 17.6703 153.97 19.5625 156.4 19.5625H157.818C160.12 19.5625 162.033 17.8577 162.206 15.6523L162.317 14.2188H163.683L163.795 15.6523C163.967 17.8577 165.88 19.5625 168.182 19.5625H169.6C172.03 19.5625 174 17.6703 174 15.3365V12.7296C174 12.5355 173.976 12.3425 173.927 12.1544ZM159.768 15.4727C159.693 16.4342 158.836 17.1875 157.818 17.1875H156.4C155.322 17.1875 154.444 16.357 154.444 15.3361V13.9431C155.137 13.7022 156.103 13.4636 157.217 13.4636C158.128 13.4636 159.022 13.6243 159.888 13.9431L159.768 15.4727V15.4727ZM171.556 15.3365C171.556 16.3574 170.678 17.1875 169.6 17.1875H168.182C167.164 17.1875 166.307 16.4342 166.232 15.4727L166.112 13.9431C166.978 13.6243 167.872 13.4636 168.784 13.4636C169.896 13.4636 170.863 13.7026 171.555 13.9434V15.3365H171.556Z" fill="#ABABAB"/>
</g>
<path d="M152.264 45.7935C154.101 42.7418 158.19 39.9121 159.999 39.9121C161.201 39.9121 163.463 41.7249 163.463 41.7249C163.463 41.7249 165.524 40.1537 167.089 39.9121C168.784 39.9121 172.869 42.681 174.702 45.7935C175.124 46.4721 175.206 47.1258 174.702 47.8883C173.849 50.2306 170.81 56.0256 164.954 56.0256C164.893 56.0332 164.847 56.04 164.813 56.046C166.021 56.0764 164.392 56.1224 164.813 56.046C164.366 56.0347 163.529 56.0256 162.053 56.0256C156.283 56.0256 153.185 50.275 152.264 47.8883C151.879 47.1936 151.946 46.3481 152.264 45.7935Z" fill="#ABABAB"/>
<path d="M163.474 46.3771C163.474 46.3771 161.866 46.3771 160.009 45.645C156.546 45.645 154.398 46.8652 154.398 46.8652C154.398 46.8652 157.297 50.3547 163.474 50.3547C169.65 50.3547 172.652 46.8652 172.652 46.8652C172.652 46.8652 170.358 45.645 167.099 45.645C165.77 46.1819 163.474 46.3771 163.474 46.3771Z" fill="#C4C4C4"/>
<g clip-path="url(#clip1)">
<path d="M174.56 73.4524L173.172 72.0635C173.032 71.9242 172.867 71.8136 172.685 71.7382C172.503 71.6628 172.308 71.624 172.111 71.624C171.914 71.624 171.719 71.6628 171.537 71.7382C171.355 71.8136 171.189 71.9242 171.05 72.0635L168.881 74.2352C168.699 74.4166 168.562 74.6379 168.481 74.8816L167.911 76.593L164.336 80.1677C163.766 79.7571 163.141 79.4299 162.456 79.2705C160.888 78.9058 159.316 79.2293 158.243 80.3018C157.806 80.7411 157.48 81.2792 157.294 81.8707C157.013 82.7407 156.207 83.403 155.319 83.486C154.208 83.5924 153.175 84.0227 152.384 84.8191C150.244 86.9524 150.629 90.7961 153.23 93.3954C155.831 95.9946 159.672 96.3743 161.807 94.2424C162.604 93.4511 163.033 92.419 163.141 91.3029C163.223 90.4193 163.886 89.6093 164.755 89.3275C165.346 89.1414 165.884 88.8159 166.324 88.3783C167.396 87.3058 167.718 85.7365 167.355 84.1713C167.196 83.485 166.869 82.8588 166.457 82.2869L170.031 78.7132L171.741 78.1432C171.985 78.0621 172.206 77.9252 172.387 77.7433L174.559 75.5721C174.84 75.291 174.998 74.91 174.998 74.5125C174.998 74.1151 174.841 73.7338 174.56 73.4524V73.4524ZM160.75 88.1243C160.305 88.1243 159.87 87.9923 159.5 87.7451C159.13 87.4978 158.841 87.1464 158.671 86.7353C158.501 86.3242 158.456 85.8718 158.543 85.4353C158.63 84.9989 158.844 84.5979 159.159 84.2833C159.473 83.9686 159.874 83.7543 160.311 83.6675C160.747 83.5807 161.2 83.6252 161.611 83.7955C162.022 83.9658 162.373 84.2542 162.62 84.6242C162.868 84.9942 163 85.4293 163 85.8743C163 86.471 162.763 87.0433 162.341 87.4653C161.919 87.8872 161.346 88.1243 160.75 88.1243Z" fill="#ABABAB"/>
</g>
<path d="M241.211 79.875C241.211 79.875 187.417 79.8749 186.667 79.875C184.792 79.875 184.792 87.375 186.667 87.375H241.211C243.315 87.375 243.273 79.875 241.211 79.875Z" fill="#E2E8F0"/>
<path d="M94.6796 8.00005C94.6796 8.00005 40.885 7.99994 40.1353 8.00005C38.2609 8.00005 38.2609 15.5 40.1353 15.5H94.6796C96.7839 15.5 96.7414 8.00005 94.6796 8.00005Z" fill="#F6E05E"/>
<path d="M94.6796 44.2498C94.6796 44.2498 40.885 44.2497 40.1353 44.2498C38.2609 44.2498 38.2609 51.7498 40.1353 51.7498H94.6796C96.7839 51.7498 96.7414 44.2498 94.6796 44.2498Z" fill="#F6E05E"/>
<path d="M241.211 80.1255C241.211 80.1255 187.417 80.1254 186.667 80.1255C184.792 80.1255 184.792 87.6255 186.667 87.6255H241.211C243.315 87.6255 243.273 80.1255 241.211 80.1255Z" fill="#F6E05E"/>
<path d="M241.211 7.74956C241.211 7.74956 187.417 7.74945 186.667 7.74956C184.792 7.74956 184.792 15.2496 186.667 15.2496H241.211C243.315 15.2496 243.273 7.74956 241.211 7.74956Z" fill="#F6E05E"/>
<path d="M40.1353 79.8733C38.2609 79.8733 38.2609 87.3733 40.1353 87.3733H53.2559L54.7554 79.8733L40.1353 79.8733Z" fill="#F6E05E"/>
<path d="M186.667 43.6875C184.792 43.6875 184.792 51.1875 186.667 51.1875H199.787L201.287 43.6875L186.667 43.6875Z" fill="#F6E05E"/>
<defs>
<linearGradient id="paint0_linear" x1="16.5202" y1="73.625" x2="14.3398" y2="93.3844" gradientUnits="userSpaceOnUse">
<stop stop-color="#C4C4C4"/>
<stop offset="1" stop-color="#E6E6E6"/>
</linearGradient>
<clipPath id="clip0">
<rect width="22" height="19" fill="white" transform="translate(152 1.75)"/>
</clipPath>
<clipPath id="clip1">
<rect width="24" height="24" fill="white" transform="translate(151 71.625)"/>
</clipPath>
</defs>
</svg>
