<svg width="1440" height="320" viewBox="0 0 1440 320" fill="none" xmlns="http://www.w3.org/2000/svg">
<g clip-path="url(#clip0_105_7)">
<path d="M33.0381 52.7545L3 8L756 8.00013L756 44.4667L739.528 74L729.854 52.7544L713.382 52.7544L703.708 32.8636L666.568 32.8637L651.155 64.3574L609.223 44.4667L550.512 24.5758L532.715 52.7545L495.215 24.5758L470.638 44.4667L465.859 24.5758L445.379 32.8637L422.902 52.7545L404.418 24.5758L360.936 32.8638L327.993 64.3575L304.461 32.8636L254.91 32.8636L202.493 52.7545L157.286 24.5758L137.651 44.4668L102.672 32.8636L89.7008 64.3575L83.5567 44.4666L60.3454 32.8636L33.0381 52.7545Z" fill="url(#paint0_linear_105_7)"/>
<path d="M760.038 52.7545L730 8L1483 8.00013L1483 44.4667L1466.53 74L1456.85 52.7544L1440.38 52.7544L1430.71 32.8636L1393.57 32.8637L1378.16 64.3574L1336.22 44.4667L1277.51 24.5758L1259.71 52.7545L1222.21 24.5758L1197.64 44.4667L1192.86 24.5758L1172.38 32.8637L1149.9 52.7545L1131.42 24.5758L1087.94 32.8638L1054.99 64.3575L1031.46 32.8636L981.91 32.8636L929.493 52.7545L884.286 24.5758L864.651 44.4668L829.672 32.8636L816.701 64.3575L810.557 44.4666L787.345 32.8636L760.038 52.7545Z" fill="url(#paint1_linear_105_7)"/>
<path d="M30.0381 44.7545L0 0L753 0.000131659L753 36.4667L736.528 66L726.854 44.7544L710.382 44.7544L700.708 24.8636L663.568 24.8637L648.155 56.3574L606.223 36.4667L547.512 16.5758L529.715 44.7545L492.215 16.5758L467.638 36.4667L462.859 16.5758L442.379 24.8637L419.902 44.7545L401.418 16.5758L357.936 24.8638L324.993 56.3575L301.461 24.8636L251.91 24.8636L199.493 44.7545L154.286 16.5758L134.651 36.4668L99.6718 24.8636L86.7008 56.3575L80.5567 36.4666L57.3454 24.8636L30.0381 44.7545Z" fill="#A3A4F4"/>
<path d="M757.038 44.7545L727 0L1480 0.000131659L1480 36.4667L1463.53 66L1453.85 44.7544L1437.38 44.7544L1427.71 24.8636L1390.57 24.8637L1375.16 56.3574L1333.22 36.4667L1274.51 16.5758L1256.71 44.7545L1219.21 16.5758L1194.64 36.4667L1189.86 16.5758L1169.38 24.8637L1146.9 44.7545L1128.42 16.5758L1084.94 24.8638L1051.99 56.3575L1028.46 24.8636L978.91 24.8636L926.493 44.7545L881.286 16.5758L861.651 36.4668L826.672 24.8636L813.701 56.3575L807.557 36.4666L784.345 24.8636L757.038 44.7545Z" fill="#A3A4F4"/>
</g>
<defs>
<linearGradient id="paint0_linear_105_7" x1="379.5" y1="8.00007" x2="379.5" y2="73.9999" gradientUnits="userSpaceOnUse">
<stop/>
<stop offset="0.458333" stop-opacity="0.65"/>
<stop offset="1" stop-opacity="0.48"/>
</linearGradient>
<linearGradient id="paint1_linear_105_7" x1="1106.5" y1="8.00007" x2="1106.5" y2="73.9999" gradientUnits="userSpaceOnUse">
<stop/>
<stop offset="0.458333" stop-opacity="0.65"/>
<stop offset="1" stop-opacity="0.48"/>
</linearGradient>
<clipPath id="clip0_105_7">
<rect width="1440" height="320" fill="white" transform="translate(1440 320) rotate(-180)"/>
</clipPath>
</defs>
</svg>
