<svg width="1440" height="320" viewBox="0 0 1440 320" fill="none" xmlns="http://www.w3.org/2000/svg">
<g clip-path="url(#clip0_104_5)">
<path d="M57.4434 39.3261L3.05176e-05 0L1440 0.000251778L1440 32.0437L1415.2 21.8481L1386.47 67.0001L1346 32.0437L1325.11 49.5219L1268.98 21.848L1212.84 49.5219L1159.31 32.0436L1047.04 14.5654L1007.87 21.848L941.288 14.5654L894.288 32.0436L885.15 14.5654L845.984 21.848L788.54 21.8479L767.652 14.5653L724.569 32.0436L635.793 14.5653L481.741 21.8479L434.742 39.3261L295.05 14.5653L202.357 49.5217L190.607 21.8478L165.802 49.5217L154.053 32.0435L109.665 21.8478L57.4434 39.3261Z" fill="#FD706B"/>
</g>
<defs>
<clipPath id="clip0_104_5">
<rect width="1440" height="320" fill="white" transform="translate(1440 320) rotate(-180)"/>
</clipPath>
</defs>
</svg>
