<svg width="1920" height="859" viewBox="0 0 1920 859" fill="none" xmlns="http://www.w3.org/2000/svg">
<g clip-path="url(#clip0_111_94)">
<path d="M1356.65 297.137L1453.84 357.501L1360.92 411.469L1356.65 297.137Z" fill="#B3FFC6" fill-opacity="0.34"/>
<path d="M604.949 476.155L507.757 415.791L600.68 361.823L604.949 476.155Z" fill="#B3FFC6" fill-opacity="0.34"/>
<path d="M1541.83 76.928L1655.01 93.6492L1591.22 180.127L1541.83 76.928Z" fill="#B3FFC6" fill-opacity="0.34"/>
<path d="M361.322 129.875L248.139 113.154L311.925 26.6757L361.322 129.875Z" fill="#B3FFC6" fill-opacity="0.34"/>
<path d="M1401.05 461.313L1355.75 566.378L1288.61 482.481L1401.05 461.313Z" fill="#8789ED" fill-opacity="0.38"/>
<path d="M560.552 311.98L605.844 206.914L672.989 290.811L560.552 311.98Z" fill="#8789ED" fill-opacity="0.38"/>
<path d="M1507.03 189.534L1508.28 303.94L1412.87 254.517L1507.03 189.534Z" fill="#8789ED" fill-opacity="0.38"/>
<path d="M454.564 583.758L453.314 469.352L548.731 518.775L454.564 583.758Z" fill="#8789ED" fill-opacity="0.38"/>
<path d="M1440.12 562.255L1441.07 649.37L1368.41 611.736L1440.12 562.255Z" fill="#8789ED" fill-opacity="0.38"/>
<path d="M521.481 211.037L520.529 123.922L593.186 161.556L521.481 211.037Z" fill="#8789ED" fill-opacity="0.38"/>
<path d="M1729.94 356.091L1730.72 427.397L1671.25 396.592L1729.94 356.091Z" fill="#8789ED" fill-opacity="0.38"/>
<path d="M231.653 417.202L230.874 345.896L290.346 376.7L231.653 417.202Z" fill="#8789ED" fill-opacity="0.38"/>
<path d="M1612.42 508.141L1649.19 569.24L1582.31 572.782L1612.42 508.141Z" fill="#8789ED" fill-opacity="0.38"/>
<path d="M349.177 265.151L312.407 204.052L379.289 200.51L349.177 265.151Z" fill="#8789ED" fill-opacity="0.38"/>
<path d="M1551.06 297.951L1641.53 292.528L1606.12 369.937L1551.06 297.951Z" fill="#8789ED" fill-opacity="0.38"/>
<path d="M410.541 475.342L320.072 480.764L355.478 403.355L410.541 475.342Z" fill="#8789ED" fill-opacity="0.38"/>
<path d="M1668.62 111.147L1821.93 206.363L1675.36 291.489L1668.62 111.147Z" fill="#8789ED" fill-opacity="0.38"/>
<path d="M292.975 662.145L139.67 566.929L286.241 481.803L292.975 662.145Z" fill="#8789ED" fill-opacity="0.38"/>
<path d="M1863.05 78.6193L1977.28 149.563L1868.07 212.989L1863.05 78.6193Z" fill="#B3FFC6" fill-opacity="0.34"/>
<path d="M98.5464 694.673L-15.6788 623.729L93.5291 560.303L98.5464 694.673Z" fill="#B3FFC6" fill-opacity="0.34"/>
<path d="M1663.62 420.147L1816.93 515.363L1670.36 600.489L1663.62 420.147Z" fill="#8789ED" fill-opacity="0.38"/>
<path d="M297.975 353.145L144.67 257.929L291.241 172.803L297.975 353.145Z" fill="#8789ED" fill-opacity="0.38"/>
<path d="M1598.5 428.859L1526.46 544.192L1462.6 433.584L1598.5 428.859Z" fill="#8789ED" fill-opacity="0.38"/>
<path d="M363.099 344.433L435.142 229.1L499.001 339.708L363.099 344.433Z" fill="#8789ED" fill-opacity="0.38"/>
<path d="M1308.17 36.7254L1308.93 117.473L1239.7 79.5306L1308.17 36.7254Z" fill="#8789ED" fill-opacity="0.38"/>
<path d="M427.969 142.275L427.212 61.527L496.441 99.4694L427.969 142.275Z" fill="#8789ED" fill-opacity="0.38"/>
<path d="M1462.71 158.33L1385.25 181.144L1402.81 104.177L1462.71 158.33Z" fill="#B3FFC6" fill-opacity="0.34"/>
<path d="M498.884 614.962L576.346 592.148L558.786 669.115L498.884 614.962Z" fill="#B3FFC6" fill-opacity="0.34"/>
<path d="M1886.11 313.906L1886.87 394.654L1817.64 356.711L1886.11 313.906Z" fill="#B3FFC6" fill-opacity="0.34"/>
<path d="M75.4847 459.386L74.7281 378.638L143.957 416.581L75.4847 459.386Z" fill="#B3FFC6" fill-opacity="0.34"/>
<path d="M1840.11 550.906L1840.87 631.654L1771.64 593.711L1840.11 550.906Z" fill="#8789ED" fill-opacity="0.38"/>
<path d="M75.4847 158.386L74.7281 77.6383L143.957 115.581L75.4847 158.386Z" fill="#8789ED" fill-opacity="0.38"/>
<path d="M1850.89 447.861L1907.88 505.075L1831.85 526.335L1850.89 447.861Z" fill="#8789ED" fill-opacity="0.38"/>
<path d="M110.705 325.431L53.7191 268.217L129.747 246.957L110.705 325.431Z" fill="#8789ED" fill-opacity="0.38"/>
</g>
<defs>
<clipPath id="clip0_111_94">
<rect width="1920" height="859" fill="white"/>
</clipPath>
</defs>
</svg>
