<svg width="1440" height="320" viewBox="0 0 1440 320" fill="none" xmlns="http://www.w3.org/2000/svg">
<g clip-path="url(#clip0_20_58)">
<path d="M-0.707108 218.867L47.2929 216.006C95.2929 212.929 191.293 207.531 287.293 198.733C383.293 190.258 479.293 178.383 575.293 181.46C671.293 184.321 767.293 201.594 863.293 227.503C959.293 253.412 1055.29 287.958 1151.29 285.097C1247.29 282.021 1343.29 242.077 1391.29 221.727L1439.29 201.594V322.504H1391.29C1343.29 322.504 1247.29 322.504 1151.29 322.504C1055.29 322.504 959.293 322.504 863.293 322.504C767.293 322.504 671.293 322.504 575.293 322.504C479.293 322.504 383.293 322.504 287.293 322.504C191.293 322.504 95.2929 322.504 47.2929 322.504H-0.707108V218.867Z" fill="url(#paint0_linear_20_58)"/>
</g>
<defs>
<linearGradient id="paint0_linear_20_58" x1="616" y1="191" x2="610.957" y2="324.341" gradientUnits="userSpaceOnUse">
<stop stop-color="#A9ECE3"/>
<stop offset="1" stop-color="#FD706B"/>
</linearGradient>
<clipPath id="clip0_20_58">
<rect width="1440" height="320" fill="white"/>
</clipPath>
</defs>
</svg>
