<svg width="1440" height="320" viewBox="0 0 1440 320" fill="none" xmlns="http://www.w3.org/2000/svg">
<g clip-path="url(#clip0_104_3)">
<path d="M1382.56 280.674L1440 320L0 320L2.80133e-06 287.956L24.8049 298.152L53.5267 253L93.998 287.956L114.887 270.478L171.024 298.152L227.162 270.478L280.689 287.956L392.965 305.435L432.13 298.152L498.713 305.435L545.712 287.956L554.85 305.435L594.016 298.152L651.46 298.152L672.348 305.435L715.431 287.957L804.207 305.435L958.259 298.152L1005.26 280.674L1144.95 305.435L1237.64 270.478L1249.39 298.152L1274.2 270.478L1285.95 287.957L1330.34 298.152L1382.56 280.674Z" fill="#FD706B"/>
</g>
<defs>
<clipPath id="clip0_104_3">
<rect width="1440" height="320" fill="white"/>
</clipPath>
</defs>
</svg>
