<svg width="1920" height="1019" viewBox="0 0 1920 1019" fill="none" xmlns="http://www.w3.org/2000/svg">
<path d="M1327.65 397.158L1424.84 457.523L1331.92 511.49L1327.65 397.158Z" fill="#B3FFC6" fill-opacity="0.34"/>
<path d="M1544.03 557.107L1599.55 657.144L1492.11 659.061L1544.03 557.107Z" fill="#B3FFC6" fill-opacity="0.34"/>
<path d="M1541.83 268.928L1655.01 285.649L1591.22 372.127L1541.83 268.928Z" fill="#B3FFC6" fill-opacity="0.34"/>
<path d="M361.322 321.875L248.139 305.154L311.925 218.676L361.322 321.875Z" fill="#B3FFC6" fill-opacity="0.34"/>
<path d="M1475.92 515.438L1430.63 620.503L1363.48 536.606L1475.92 515.438Z" fill="#8789ED" fill-opacity="0.38"/>
<path d="M505.766 509.594L551.058 404.528L618.203 488.425L505.766 509.594Z" fill="#8789ED" fill-opacity="0.38"/>
<path d="M1528.03 348.534L1529.28 462.94L1433.87 413.517L1528.03 348.534Z" fill="#8789ED" fill-opacity="0.38"/>
<path d="M460.089 726.126L458.839 611.72L554.257 661.144L460.089 726.126Z" fill="#8789ED" fill-opacity="0.38"/>
<path d="M1473.12 634.728L1474.07 721.843L1401.41 684.209L1473.12 634.728Z" fill="#8789ED" fill-opacity="0.38"/>
<path d="M521.481 403.037L520.529 315.922L593.186 353.556L521.481 403.037Z" fill="#8789ED" fill-opacity="0.38"/>
<path d="M1753.94 517.785L1754.72 589.091L1695.25 558.287L1753.94 517.785Z" fill="#8789ED" fill-opacity="0.38"/>
<path d="M235.877 567.945L294.109 526.785L302.555 593.227L235.877 567.945Z" fill="#8789ED" fill-opacity="0.38"/>
<path d="M1565.61 675.045L1602.38 736.144L1535.5 739.685L1565.61 675.045Z" fill="#8789ED" fill-opacity="0.38"/>
<path d="M349.177 457.151L312.407 396.052L379.289 392.51L349.177 457.151Z" fill="#8789ED" fill-opacity="0.38"/>
<path d="M1551.06 489.951L1641.53 484.528L1606.12 561.937L1551.06 489.951Z" fill="#8789ED" fill-opacity="0.38"/>
<path d="M247.462 668.068L156.993 673.49L192.399 596.081L247.462 668.068Z" fill="#8789ED" fill-opacity="0.38"/>
<path d="M1664.62 331.147L1817.93 426.363L1671.36 511.489L1664.62 331.147Z" fill="#8789ED" fill-opacity="0.38"/>
<path d="M1706.33 289.304L1837.54 259.895L1804.06 381.666L1706.33 289.304Z" fill="#B3FFC6" fill-opacity="0.34"/>
<path d="M479.546 550.495L365.321 479.551L474.529 416.125L479.546 550.495Z" fill="#B3FFC6" fill-opacity="0.34"/>
<path d="M594.229 506.42L589.636 640.805L480.228 577.724L594.229 506.42Z" fill="#B3FFC6" fill-opacity="0.34"/>
<path d="M1646.62 596.147L1799.93 691.363L1653.36 776.489L1646.62 596.147Z" fill="#8789ED" fill-opacity="0.38"/>
<path d="M291.316 508.853L138.011 413.637L284.582 328.511L291.316 508.853Z" fill="#8789ED" fill-opacity="0.38"/>
<path d="M1401.5 601.859L1329.46 717.192L1265.6 606.584L1401.5 601.859Z" fill="#8789ED" fill-opacity="0.38"/>
<path d="M287.844 633.197L387.595 540.777L420.234 664.255L287.844 633.197Z" fill="#8789ED" fill-opacity="0.38"/>
<path d="M1372.11 286.906L1372.87 367.654L1303.64 329.711L1372.11 286.906Z" fill="#8789ED" fill-opacity="0.38"/>
<path d="M420.969 362.275L420.212 281.527L489.441 319.469L420.969 362.275Z" fill="#8789ED" fill-opacity="0.38"/>
<path d="M1491.71 353.33L1414.25 376.144L1431.81 299.177L1491.71 353.33Z" fill="#B3FFC6" fill-opacity="0.34"/>
<path d="M1873.11 502.906L1873.87 583.654L1804.64 545.711L1873.11 502.906Z" fill="#B3FFC6" fill-opacity="0.34"/>
<path d="M1829.11 719.906L1829.87 800.654L1760.64 762.711L1829.11 719.906Z" fill="#B3FFC6" fill-opacity="0.34"/>
<path d="M149.969 596.275L149.212 515.527L218.441 553.469L149.969 596.275Z" fill="#B3FFC6" fill-opacity="0.34"/>
<path d="M104.969 373.275L104.212 292.527L173.441 330.469L104.969 373.275Z" fill="#8789ED" fill-opacity="0.38"/>
<path d="M1825.89 588.275L1882.88 645.488L1806.85 666.748L1825.89 588.275Z" fill="#8789ED" fill-opacity="0.38"/>
<path d="M110.705 517.431L53.7191 460.217L129.747 438.957L110.705 517.431Z" fill="#8789ED" fill-opacity="0.38"/>
</svg>
